<!DOCTYPE svg PUBLIC "-//W3C//DTD SVG 20010904//EN" "http://www.w3.org/TR/2001/REC-SVG-20010904/DTD/svg10.dtd">
<svg version="1.0" xmlns="http://www.w3.org/2000/svg" width="253px" height="253px" viewBox="0 0 2530 2530" preserveAspectRatio="xMidYMid meet">
<g id="layer101" fill="#060304" fill-rule="evenodd">
<path d="M1087 2484 C1075 2481,1024 2470,975 2458 C640 2381,349 2161,173 1852 C-83 1400,-4 808,364 420 C627 145,993 6,1365 40 C1677 68,1932 190,2150 416 C2442 717,2557 1133,2464 1545 C2413 1773,2302 1967,2125 2138 C1955 2302,1763 2408,1543 2460 C1460 2479,1139 2496,1087 2484 M1042 2330 C826 2281,656 2193,506 2050 C374 1924,288 1794,227 1630 C189 1528,152 1343,167 1328 C172 1323,331 1320,520 1322 L865 1325 868 1349 C875 1402,929 1500,977 1548 C1131 1702,1373 1707,1534 1559 C1581 1515,1635 1423,1647 1363 L1655 1325 2003 1322 C2290 1320,2351 1322,2355 1333 C2363 1353,2332 1522,2308 1594 C2197 1920,1941 2180,1621 2291 C1446 2352,1210 2368,1042 2330 M1173 1514 C1107 1491,1035 1417,1015 1349 C996 1282,996 1257,1015 1190 C1044 1092,1156 1010,1260 1010 C1307 1009,1384 1038,1422 1070 C1543 1170,1550 1339,1439 1451 C1366 1524,1270 1547,1173 1514 M170 1162 C170 1119,201 981,230 895 C334 591,618 321,940 221 C1119 165,1337 159,1527 206 C1649 236,1842 328,1906 387 C1920 399,1934 410,1938 410 C1953 410,2082 540,2135 610 C2241 749,2329 967,2346 1132 L2352 1200 2004 1197 L1655 1195 1640 1145 C1622 1085,1573 1012,1527 976 C1509 961,1489 945,1483 940 C1415 886,1272 857,1177 880 C1026 915,901 1034,876 1167 L870 1200 520 1200 L170 1200 170 1162 " />
</g>
<g id="layer102" fill="#f80f3f" fill-rule="evenodd">
<path d="M170 1162 C170 1119,201 981,230 895 C334 591,618 321,940 221 C1119 165,1337 159,1527 206 C1649 236,1842 328,1906 387 C1920 399,1934 410,1938 410 C1953 410,2082 540,2135 610 C2241 749,2329 967,2346 1132 L2352 1200 2004 1197 L1655 1195 1640 1145 C1622 1085,1573 1012,1527 976 C1509 961,1489 945,1483 940 C1415 886,1272 857,1177 880 C1026 915,901 1034,876 1167 L870 1200 520 1200 L170 1200 170 1162 " />
</g>
<g id="layer103" fill="#fefefe" fill-rule="evenodd">
<path d="M1042 2330 C826 2281,656 2193,506 2050 C374 1924,288 1794,227 1630 C189 1528,152 1343,167 1328 C172 1323,331 1320,520 1322 L865 1325 868 1349 C875 1402,929 1500,977 1548 C1131 1702,1373 1707,1534 1559 C1581 1515,1635 1423,1647 1363 L1655 1325 2003 1322 C2290 1320,2351 1322,2355 1333 C2363 1353,2332 1522,2308 1594 C2197 1920,1941 2180,1621 2291 C1446 2352,1210 2368,1042 2330 " />
<path d="M1173 1514 C1107 1491,1035 1417,1015 1349 C996 1282,996 1257,1015 1190 C1044 1092,1156 1010,1260 1010 C1307 1009,1384 1038,1422 1070 C1543 1170,1550 1339,1439 1451 C1366 1524,1270 1547,1173 1514 " />
</g>

</svg>